<?xml version="1.0" encoding="UTF-8"?>
<!DOCTYPE svg PUBLIC "-//W3C//DTD SVG 1.1//EN" "http://www.w3.org/Graphics/SVG/1.1/DTD/svg11.dtd">
<!-- Creator: CorelDRAW X7 -->
<svg xmlns="http://www.w3.org/2000/svg" xml:space="preserve" width="183.989mm" height="210mm" version="1.1" style="shape-rendering:geometricPrecision; text-rendering:geometricPrecision; image-rendering:optimizeQuality; fill-rule:evenodd; clip-rule:evenodd"
viewBox="0 0 5728 6537"
 xmlns:xlink="http://www.w3.org/1999/xlink">
 <defs>
  <style type="text/css">
   <![CDATA[
    .fil1 {fill:none}
    .fil0 {fill:#85BC23}
   ]]>
  </style>
 </defs>
 <g id="Capa_x0020_1">
  <metadata id="CorelCorpID_0Corel-Layer"/>
  <path class="fil0" d="M1682 4568l-370 -358c-66,-74 -101,-131 -169,-205 -71,-76 -122,-100 -190,-182 -412,-490 -823,-134 -918,114 -167,437 306,738 471,933l360 387c375,455 828,990 1302,353 217,-291 451,-527 676,-816l2684 -3254c273,-335 26,-864 -361,-902 -288,-29 -370,144 -471,272l-3014 3658z"/>
  <rect class="fil1" x="7" width="5720" height="6537"/>
 </g>
</svg>
