<?xml version="1.0" encoding="UTF-8"?>
<!DOCTYPE svg PUBLIC "-//W3C//DTD SVG 1.1//EN" "http://www.w3.org/Graphics/SVG/1.1/DTD/svg11.dtd">
<!-- Creator: CorelDRAW X7 -->
<svg xmlns="http://www.w3.org/2000/svg" xml:space="preserve" width="183.75mm" height="210mm" version="1.1" style="shape-rendering:geometricPrecision; text-rendering:geometricPrecision; image-rendering:optimizeQuality; fill-rule:evenodd; clip-rule:evenodd"
viewBox="0 0 1443 1649"
 xmlns:xlink="http://www.w3.org/1999/xlink">
 <defs>
  <style type="text/css">
   <![CDATA[
    .str0 {stroke:#85BC23;stroke-width:23.553}
    .fil0 {fill:none}
    .fil1 {fill:#85BC23}
   ]]>
  </style>
 </defs>
 <g id="Capa_x0020_1">
  <metadata id="CorelCorpID_0Corel-Layer"/>
  <rect class="fil0" width="1443" height="1649"/>
  <path class="fil1" d="M581 985l-46 -44c-8,-10 -12,-17 -21,-26 -9,-9 -15,-12 -23,-22 -51,-61 -102,-17 -114,14 -20,54 38,91 59,115l44 48c46,56 102,122 161,43 26,-36 55,-65 83,-100l331 -402c34,-41 3,-107 -44,-111 -36,-4 -46,17 -58,33l-372 452z"/>
  <circle class="fil0 str0" cx="721" cy="824" r="624"/>
 </g>
</svg>
