<?xml version="1.0" encoding="UTF-8"?>
<!DOCTYPE svg PUBLIC "-//W3C//DTD SVG 1.1//EN" "http://www.w3.org/Graphics/SVG/1.1/DTD/svg11.dtd">
<!-- Creator: CorelDRAW X7 -->
<svg xmlns="http://www.w3.org/2000/svg" xml:space="preserve" width="183.75mm" height="210mm" version="1.1" style="shape-rendering:geometricPrecision; text-rendering:geometricPrecision; image-rendering:optimizeQuality; fill-rule:evenodd; clip-rule:evenodd"
viewBox="0 0 4297 4910"
 xmlns:xlink="http://www.w3.org/1999/xlink">
 <defs>
  <style type="text/css">
   <![CDATA[
    .fil0 {fill:none}
    .fil2 {fill:#33CC33}
    .fil4 {fill:gray}
    .fil1 {fill:#CCCCCC}
    .fil3 {fill:white;fill-rule:nonzero}
   ]]>
  </style>
 </defs>
 <g id="Capa_x0020_1">
  <metadata id="CorelCorpID_0Corel-Layer"/>
  <rect class="fil0" width="4297" height="4910"/>
  <path class="fil1" d="M1128 230l1729 0c1117,1117 0,0 1117,1117l0 2864c0,193 -158,350 -351,350l-2495 0c-193,0 -351,-157 -351,-350l0 -3631c0,-193 158,-350 351,-350z"/>
  <rect class="fil2" x="210" y="2825" width="2699" height="1410" rx="117" ry="117"/>
  <path class="fil3" d="M1048 3693c0,28 -7,59 -21,92 -14,33 -36,65 -66,96 -29,32 -68,58 -114,77 -46,20 -100,30 -162,30 -47,0 -89,-4 -127,-13 -39,-9 -73,-23 -105,-42 -31,-18 -60,-43 -86,-74 -23,-27 -43,-58 -60,-93 -16,-34 -28,-71 -37,-110 -8,-39 -12,-81 -12,-125 0,-71 10,-135 31,-191 21,-57 51,-105 89,-145 39,-40 84,-70 136,-91 52,-21 108,-32 166,-32 72,0 136,15 192,43 56,29 99,64 129,106 29,42 44,82 44,119 0,21 -7,39 -22,55 -14,15 -31,23 -52,23 -23,0 -40,-5 -52,-16 -11,-11 -24,-30 -38,-56 -24,-44 -51,-77 -83,-99 -31,-21 -70,-32 -116,-32 -74,0 -133,28 -177,84 -43,56 -65,135 -65,238 0,69 10,127 29,172 19,46 47,80 82,103 35,22 77,34 125,34 51,0 95,-13 130,-39 36,-25 63,-63 81,-113 8,-23 17,-42 28,-57 12,-14 30,-22 55,-22 21,0 39,8 55,23 15,15 23,33 23,55z"/>
  <path id="1" class="fil3" d="M1320 3087l233 0c61,0 113,6 157,17 44,11 83,33 119,64 92,79 138,199 138,360 0,53 -5,101 -14,145 -9,44 -24,84 -43,119 -19,35 -44,67 -74,95 -24,21 -50,38 -78,51 -28,13 -59,22 -91,27 -32,5 -69,8 -110,8l-234 0c-32,0 -57,-5 -74,-15 -16,-10 -27,-24 -32,-41 -5,-18 -7,-42 -7,-70l0 -650c0,-39 8,-67 26,-84 17,-17 45,-26 84,-26zm69 142l0 602 136 0c30,0 53,-1 70,-3 17,-1 35,-5 53,-12 18,-6 34,-15 47,-27 60,-51 90,-138 90,-262 0,-88 -13,-153 -40,-197 -26,-43 -59,-71 -97,-83 -39,-12 -86,-18 -140,-18l-119 0z"/>
  <path id="2" class="fil3" d="M2365 3594l-63 0 0 285c0,37 -8,65 -24,82 -17,18 -38,27 -65,27 -28,0 -51,-9 -66,-28 -16,-18 -24,-46 -24,-81l0 -682c0,-39 9,-67 26,-84 17,-17 45,-26 84,-26l292 0c40,0 74,2 103,5 29,4 55,11 77,21 28,12 53,29 74,50 21,22 38,47 49,76 11,29 16,60 16,92 0,66 -18,119 -55,158 -38,40 -94,68 -170,84 32,17 62,42 91,75 29,33 55,68 78,105 23,38 40,71 53,101 13,30 19,51 19,62 0,12 -4,23 -11,35 -7,11 -18,20 -31,27 -12,7 -27,10 -44,10 -20,0 -37,-5 -51,-14 -14,-10 -25,-22 -35,-36 -10,-15 -24,-36 -41,-64l-71 -120c-26,-43 -49,-77 -70,-100 -20,-23 -41,-39 -62,-47 -20,-8 -47,-13 -79,-13zm103 -372l-166 0 0 244 161 0c43,0 80,-4 109,-11 29,-8 52,-21 67,-39 16,-17 24,-42 24,-74 0,-24 -7,-46 -19,-65 -13,-19 -30,-33 -52,-42 -21,-9 -62,-13 -124,-13z"/>
  <path class="fil4" d="M2857 230c1117,1117 64,64 1117,1117l-766 0c-193,0 -351,-158 -351,-351 0,-255 0,-511 0,-766z"/>
 </g>
</svg>
