<?xml version="1.0" encoding="UTF-8"?>
<!DOCTYPE svg PUBLIC "-//W3C//DTD SVG 1.1//EN" "http://www.w3.org/Graphics/SVG/1.1/DTD/svg11.dtd">
<!-- Creator: CorelDRAW X7 -->
<svg xmlns="http://www.w3.org/2000/svg" xml:space="preserve" width="183.75mm" height="210mm" version="1.1" style="shape-rendering:geometricPrecision; text-rendering:geometricPrecision; image-rendering:optimizeQuality; fill-rule:evenodd; clip-rule:evenodd"
viewBox="0 0 3396 3881"
 xmlns:xlink="http://www.w3.org/1999/xlink">
 <defs>
  <style type="text/css">
   <![CDATA[
    .fil0 {fill:none}
    .fil1 {fill:#221E1F}
    .fil6 {fill:#504E4F}
    .fil5 {fill:#666666}
    .fil3 {fill:#FF6600}
    .fil2 {fill:yellow}
    .fil4 {fill:white}
   ]]>
  </style>
 </defs>
 <g id="Capa_x0020_1">
  <metadata id="CorelCorpID_0Corel-Layer"/>
  <rect class="fil0" width="3396" height="3881"/>
  <path class="fil1" d="M379 3261l80 -231c22,10 111,104 133,126 13,14 9,7 17,25l-230 80zm256 -723l179 79 5 203 188 -7c14,15 85,166 93,194l-403 141 -205 -207c16,-61 49,-138 70,-202 23,-67 48,-136 73,-201zm451 241l64 -73c1,-1 2,-2 3,-3l177 -176c6,-6 8,-8 13,-13l313 -314c1,-1 2,-2 3,-3l14 -13c9,-8 14,-14 22,-24l67 -65c0,-1 2,-2 2,-3 19,-19 16,-15 12,-20 -1,-1 -3,-3 -3,-1 0,1 -2,-1 -3,-1 0,0 -71,46 -75,1 -3,-24 28,-22 46,-29 -6,-15 -4,-35 -36,2l-20 21c-34,35 15,-1 -35,34 -26,18 -605,616 -635,631l-114 4c1,-128 -19,-112 37,-167 164,-161 329,-335 492,-493l97 -98c162,-154 333,-326 493,-487 65,-67 131,-132 197,-198 61,-60 133,-142 198,-196l116 119 -25 29c-10,11 -15,16 -26,27l-356 355c-11,13 -3,0 -12,17 12,8 19,16 30,28 25,26 19,19 33,22l419 -418 128 129c-7,17 1,1 -6,12l-379 380c-297,293 -662,666 -970,969l-145 145c-9,9 -14,15 -23,24 -14,14 -12,14 -29,21l-84 -175zm-401 -311c11,-26 71,-78 95,-101 34,-34 64,-64 97,-98l969 -965c91,-91 309,-317 390,-389l116 120 -940 942c-140,131 -325,327 -469,468 -31,31 -61,66 -95,95l-163 -72zm1611 -1612c10,-20 71,-76 89,-95 37,15 434,442 492,483 -9,19 -77,83 -94,99 -7,-4 -465,-453 -487,-487zm154 -161c53,-46 128,-128 248,-128 68,0 99,30 129,60l187 187c137,136 7,287 -71,375 -30,-11 -229,-222 -251,-243 -25,-26 -232,-222 -242,-251zm-1940 2609c92,-32 179,-64 268,-96 90,-32 178,-62 269,-95 31,-12 111,-35 135,-49l457 -455c365,-361 727,-734 1093,-1093 78,-77 306,-296 359,-373 46,-68 85,-185 52,-284 -22,-67 -110,-141 -167,-197 -66,-66 -127,-145 -201,-168 -102,-31 -211,9 -282,56 -46,31 -147,137 -187,177l-1642 1640c-17,17 -82,77 -91,93l-144 404c-54,156 -144,386 -189,534l270 -94z"/>
  <path class="fil2" d="M1015 2730c155,-163 365,-366 533,-533l181 -178 57 59 -611 611c-30,30 -61,59 -89,90l84 175c17,-7 15,-7 29,-21 9,-9 14,-15 23,-24l145 -145c308,-303 673,-676 970,-969l379 -380c7,-11 -1,5 6,-12l-128 -129 -419 418c-14,-3 -8,4 -33,-22 -11,-12 -18,-20 -30,-28 9,-17 1,-4 12,-17l356 -355c11,-11 16,-16 26,-27l25 -29 -116 -119c-65,54 -137,136 -198,196 -66,66 -132,131 -197,198 -160,161 -331,333 -493,487l-97 98c-163,158 -328,332 -492,493 -56,55 -36,39 -37,167l114 -4z"/>
  <path class="fil2" d="M685 2468l163 72c34,-29 64,-64 95,-95 144,-141 329,-337 469,-468l940 -942 -116 -120c-81,72 -299,298 -390,389l-969 965c-33,34 -63,64 -97,98 -24,23 -84,75 -95,101z"/>
  <path class="fil3" d="M2450 695c10,29 217,225 242,251 22,21 221,232 251,243 78,-88 208,-239 71,-375l-187 -187c-30,-30 -61,-60 -129,-60 -120,0 -195,82 -248,128z"/>
  <path class="fil2" d="M635 2538c-25,65 -50,134 -73,201 -21,64 -54,141 -70,202l205 207 403 -141c-8,-28 -79,-179 -93,-194l-188 7 -5 -203 -179 -79z"/>
  <path class="fil4" d="M2296 856c22,34 480,483 487,487 17,-16 85,-80 94,-99 -58,-41 -455,-468 -492,-483 -18,19 -79,75 -89,95z"/>
  <path class="fil5" d="M609 3181c-8,-18 -4,-11 -17,-25 -22,-22 -111,-116 -133,-126l-80 231 230 -80z"/>
  <path class="fil6" d="M1704 2072c11,-27 -2,-9 23,-15l28 -11c4,7 4,9 8,19 -8,5 -13,10 -24,13 -7,2 -14,3 -21,2 -11,-2 -9,-4 -14,-8zm-618 707c28,-31 59,-60 89,-90l611 -611 -57 -59 -181 178c-168,167 -378,370 -533,533 30,-15 609,-613 635,-631 50,-35 1,1 35,-34l20 -21c32,-37 30,-17 36,-2 -18,7 -49,5 -46,29 4,45 75,-1 75,-1 1,0 3,2 3,1 0,-2 2,0 3,1 4,5 7,1 -12,20 0,1 -2,2 -2,3l-67 65c-8,10 -13,16 -22,24l-14 13c-1,1 -2,2 -3,3l-313 314c-5,5 -7,7 -13,13l-177 176c-1,1 -2,2 -3,3l-64 73z"/>
  <path class="fil1" d="M1704 2072c5,4 3,6 14,8 7,1 14,0 21,-2 11,-3 16,-8 24,-13 -4,-10 -4,-12 -8,-19l-28 11c-25,6 -12,-12 -23,15z"/>
 </g>
</svg>
