<?xml version="1.0" encoding="UTF-8"?>
<!DOCTYPE svg PUBLIC "-//W3C//DTD SVG 1.1//EN" "http://www.w3.org/Graphics/SVG/1.1/DTD/svg11.dtd">
<!-- Creator: CorelDRAW X7 -->
<svg xmlns="http://www.w3.org/2000/svg" xml:space="preserve" width="183.75mm" height="210mm" version="1.1" style="shape-rendering:geometricPrecision; text-rendering:geometricPrecision; image-rendering:optimizeQuality; fill-rule:evenodd; clip-rule:evenodd"
viewBox="0 0 2862 3270"
 xmlns:xlink="http://www.w3.org/1999/xlink">
 <defs>
  <style type="text/css">
   <![CDATA[
    .fil0 {fill:none}
    .fil2 {fill:#ED3237}
    .fil4 {fill:gray}
    .fil1 {fill:#CCCCCC}
    .fil3 {fill:white;fill-rule:nonzero}
   ]]>
  </style>
 </defs>
 <g id="Capa_x0020_1">
  <metadata id="CorelCorpID_0Corel-Layer"/>
  <rect class="fil0" width="2862" height="3270"/>
  <path class="fil1" d="M751 153l1152 0c744,744 0,0 744,744l0 1907c0,129 -105,234 -234,234l-1662 0c-128,0 -234,-105 -234,-234l0 -2417c0,-129 106,-234 234,-234z"/>
  <rect class="fil2" x="140" y="1882" width="1797" height="939" rx="78" ry="78"/>
  <path class="fil3" d="M483 2411l-109 0 0 167c0,24 -6,42 -17,55 -11,12 -26,18 -43,18 -18,0 -32,-6 -43,-18 -11,-12 -17,-30 -17,-54l0 -455c0,-26 6,-45 18,-56 12,-11 31,-17 58,-17l153 0c45,0 80,4 105,11 24,6 45,17 62,33 18,16 31,35 40,57 10,23 14,48 14,76 0,60 -18,106 -55,137 -37,31 -93,46 -166,46zm-29 -270l-80 0 0 180 80 0c28,0 52,-3 71,-8 19,-6 33,-16 43,-29 10,-14 15,-31 15,-53 0,-26 -8,-47 -23,-64 -17,-17 -52,-26 -106,-26z"/>
  <path id="1" class="fil3" d="M878 2051l156 0c40,0 75,4 104,11 29,8 55,22 79,43 61,52 92,132 92,240 0,35 -3,67 -9,97 -6,29 -16,55 -29,79 -13,23 -29,44 -49,63 -16,14 -33,25 -52,34 -19,9 -39,15 -61,18 -21,3 -46,5 -73,5l-156 0c-21,0 -38,-3 -49,-10 -11,-6 -18,-15 -21,-27 -4,-12 -5,-28 -5,-47l0 -433c0,-25 5,-44 17,-56 12,-11 30,-17 56,-17zm46 95l0 400 91 0c20,0 35,0 47,-1 11,-1 22,-4 35,-8 12,-5 22,-11 31,-18 40,-34 60,-92 60,-175 0,-58 -9,-102 -26,-131 -18,-29 -40,-47 -65,-55 -26,-8 -57,-12 -94,-12l-79 0z"/>
  <path id="2" class="fil3" d="M1766 2143l-235 0 0 151 197 0c18,0 32,4 40,13 9,8 14,19 14,32 0,14 -5,25 -14,33 -9,8 -22,12 -40,12l-197 0 0 194c0,25 -6,43 -17,55 -11,12 -25,18 -43,18 -17,0 -32,-6 -43,-18 -11,-12 -17,-30 -17,-55l0 -454c0,-17 3,-31 8,-42 5,-10 13,-18 24,-23 11,-5 25,-8 42,-8l281 0c19,0 34,4 43,13 9,8 14,19 14,33 0,14 -5,25 -14,34 -9,8 -24,12 -43,12z"/>
  <path class="fil4" d="M1903 153c744,744 43,43 744,744l-511 0c-128,0 -233,-105 -233,-233 0,-171 0,-341 0,-511z"/>
 </g>
</svg>
