<?xml version="1.0" encoding="UTF-8"?>
<!DOCTYPE svg PUBLIC "-//W3C//DTD SVG 1.1//EN" "http://www.w3.org/Graphics/SVG/1.1/DTD/svg11.dtd">
<!-- Creator: CorelDRAW X7 -->
<svg xmlns="http://www.w3.org/2000/svg" xml:space="preserve" width="183.75mm" height="210mm" version="1.1" style="shape-rendering:geometricPrecision; text-rendering:geometricPrecision; image-rendering:optimizeQuality; fill-rule:evenodd; clip-rule:evenodd"
viewBox="0 0 5652 6459"
 xmlns:xlink="http://www.w3.org/1999/xlink">
 <defs>
  <style type="text/css">
   <![CDATA[
    .fil1 {fill:none}
    .fil0 {fill:#9999FF}
   ]]>
  </style>
 </defs>
 <g id="Capa_x0020_1">
  <metadata id="CorelCorpID_0Corel-Layer"/>
  <g id="_704939958672">
   <path class="fil0" d="M1368 2733c89,-87 479,-1184 1642,-1182 420,1 741,120 1036,367 54,45 198,196 221,256 -56,96 -222,310 -252,393l1173 131 -314 -1413c-39,38 -112,159 -145,209 -40,62 -99,165 -147,216l-173 -237c-623,-793 -1748,-1034 -2673,-550 -293,154 -484,313 -700,534 -151,155 -417,565 -477,775l809 501z"/>
   <path class="fil0" d="M871 5174c51,-59 251,-396 303,-429 81,177 248,328 369,457 106,114 315,258 482,344 840,431 1802,248 2482,-350 247,-217 589,-650 681,-972l-814 -506c-102,248 -329,546 -474,697 -165,172 -420,354 -737,439 -751,199 -1406,-152 -1685,-563 40,-88 241,-339 252,-403l-1172 -129 313 1415z"/>
  </g>
  <rect class="fil1" width="5652" height="6459"/>
 </g>
</svg>
