<?xml version="1.0" encoding="UTF-8"?>
<!DOCTYPE svg PUBLIC "-//W3C//DTD SVG 1.1//EN" "http://www.w3.org/Graphics/SVG/1.1/DTD/svg11.dtd">
<!-- Creator: CorelDRAW X7 -->
<svg xmlns="http://www.w3.org/2000/svg" xml:space="preserve" width="183.75mm" height="210mm" version="1.1" style="shape-rendering:geometricPrecision; text-rendering:geometricPrecision; image-rendering:optimizeQuality; fill-rule:evenodd; clip-rule:evenodd"
viewBox="0 0 1030 1177"
 xmlns:xlink="http://www.w3.org/1999/xlink">
 <defs>
  <style type="text/css">
   <![CDATA[
    .fil1 {fill:none}
    .fil0 {fill:blue}
   ]]>
  </style>
 </defs>
 <g id="Capa_x0020_1">
  <metadata id="CorelCorpID_0Corel-Layer"/>
  <g id="_176677831264">
   <path class="fil0" d="M501 368c64,0 136,31 189,66l22 15c7,5 13,10 20,15 8,5 14,10 21,16l49 42c8,7 13,14 23,22l9 10c4,5 27,26 32,33 -3,3 -6,7 -9,9l-26 29c-6,6 -12,12 -18,18l-34 30c-1,2 -2,3 -4,5 -27,22 -43,35 -72,55l-22 14c-4,3 -8,5 -12,7l-24 13c-15,8 -35,16 -51,21 -20,7 -55,16 -76,16 -16,1 -17,1 -34,0 -5,0 -12,-1 -16,-2 -32,-4 -56,-13 -85,-25l-13 -6c-4,-2 -7,-3 -11,-6 -36,-17 -68,-41 -100,-64 -4,-3 -6,-6 -10,-9l-35 -29c-1,-1 -3,-3 -4,-5l-10 -8c-3,-3 -6,-5 -9,-8l-55 -56c3,-5 5,-6 9,-10l8 -9c11,-12 27,-26 37,-36 35,-36 113,-96 156,-117 5,-3 8,-4 13,-7 21,-10 33,-16 57,-24 2,-1 4,-1 7,-2 4,-2 9,-3 14,-4 17,-5 43,-9 64,-9zm439 220l0 0 -10 12c-2,2 -4,4 -6,6 -8,10 -17,20 -25,30l-10 11c-4,4 -8,7 -12,11 -2,3 -2,4 -5,7l-28 27c-14,14 -31,28 -47,41 -4,4 -8,7 -12,10 -5,4 -8,6 -13,10 -12,10 -25,18 -39,27 -8,6 -18,12 -27,17 -2,1 -4,3 -7,4l-14 8c-3,2 -5,2 -8,4 -125,63 -225,61 -346,1l-62 -37c-18,-12 -34,-25 -51,-37l-24 -20c-3,-2 -4,-3 -6,-6 -3,-2 -4,-2 -6,-4l-89 -89c-9,-9 -17,-20 -25,-29 -2,-2 -4,-4 -5,-6 1,-5 25,-32 30,-37 3,-3 3,-4 6,-6l49 -50c2,-3 4,-3 6,-6l23 -21c3,-3 4,-3 6,-5 20,-19 53,-43 75,-59l41 -26c21,-12 43,-24 66,-34l24 -9c11,-4 22,-7 34,-10 48,-14 109,-15 158,0 28,8 48,15 74,27 3,2 4,2 7,4 27,13 54,28 78,45l31 23c17,12 48,37 62,51l22 21c8,8 15,15 23,22 8,9 59,62 62,72z"/>
   <path class="fil0" d="M511 483c22,0 29,2 48,10 34,14 59,55 59,93 0,13 -4,31 -10,42 -4,7 -9,17 -15,23 -8,9 -3,4 -13,13 -7,6 -16,12 -24,16 -39,19 -84,8 -113,-21 -18,-17 -29,-39 -31,-71 -1,-12 5,-32 9,-43 4,-10 12,-22 20,-30 10,-10 16,-15 30,-22 10,-5 25,-10 40,-10zm-155 104c0,24 6,48 14,66 9,19 19,33 33,48 27,26 55,41 93,47 37,6 79,-8 108,-29 42,-31 69,-78 69,-132 0,-57 -30,-103 -67,-131 -16,-11 -36,-20 -55,-24 -10,-3 -16,-3 -26,-4 -4,0 -5,-1 -10,-1l-18 2c-26,4 -52,12 -72,27 -26,19 -40,36 -54,65 -8,16 -15,43 -15,66z"/>
  </g>
  <rect class="fil1" width="1030" height="1177"/>
 </g>
</svg>
