<?xml version="1.0" encoding="UTF-8"?>
<!DOCTYPE svg PUBLIC "-//W3C//DTD SVG 1.1//EN" "http://www.w3.org/Graphics/SVG/1.1/DTD/svg11.dtd">
<!-- Creator: CorelDRAW X7 -->
<svg xmlns="http://www.w3.org/2000/svg" xml:space="preserve" width="183.75mm" height="210mm" version="1.1" style="shape-rendering:geometricPrecision; text-rendering:geometricPrecision; image-rendering:optimizeQuality; fill-rule:evenodd; clip-rule:evenodd"
viewBox="0 0 9423 10769"
 xmlns:xlink="http://www.w3.org/1999/xlink">
 <defs>
  <style type="text/css">
   <![CDATA[
    .fil0 {fill:none}
    .fil2 {fill:#6666FF}
    .fil4 {fill:gray}
    .fil1 {fill:#CCCCCC}
    .fil3 {fill:white;fill-rule:nonzero}
   ]]>
  </style>
 </defs>
 <g id="Capa_x0020_1">
  <metadata id="CorelCorpID_0Corel-Layer"/>
  <rect class="fil0" width="9423" height="10769"/>
  <path class="fil1" d="M2473 504l3793 0c2450,2450 0,0 2450,2450l0 6281c0,423 -346,769 -769,769l-5474 0c-423,0 -769,-346 -769,-769l0 -7962c0,-423 346,-769 769,-769z"/>
  <rect class="fil2" x="460" y="6196" width="5919" height="3091" rx="256" ry="256"/>
  <path class="fil3" d="M792 8336l435 -634 -366 -565c-35,-55 -60,-102 -78,-141 -17,-39 -25,-77 -25,-114 0,-37 16,-70 49,-100 33,-29 74,-44 122,-44 54,0 97,16 127,49 31,32 73,92 127,179l291 472 312 -472c25,-40 48,-74 66,-102 18,-28 35,-52 52,-70 17,-19 35,-33 56,-42 21,-9 45,-14 73,-14 49,0 89,15 121,44 31,30 47,65 47,106 0,59 -34,140 -102,241l-383 573 412 634c37,56 64,102 81,138 16,37 25,71 25,104 0,31 -8,59 -23,85 -15,25 -36,46 -63,61 -28,15 -58,22 -93,22 -37,0 -69,-7 -94,-23 -26,-15 -46,-35 -62,-57 -16,-23 -46,-68 -89,-134l-342 -537 -364 553c-28,44 -47,75 -60,92 -11,18 -26,35 -43,52 -16,17 -36,30 -59,40 -23,9 -50,14 -81,14 -48,0 -88,-14 -119,-44 -31,-29 -47,-71 -47,-127 0,-65 32,-145 97,-239z"/>
  <path id="1" class="fil3" d="M3159 8421l-312 -1238 0 1341c0,74 -17,130 -50,167 -33,37 -76,55 -131,55 -53,0 -96,-18 -130,-55 -33,-37 -50,-92 -50,-167l0 -1537c0,-85 22,-142 66,-172 45,-29 104,-44 179,-44l122 0c73,0 126,6 159,20 33,13 58,37 74,71 16,34 34,91 54,168l282 1065 283 -1065c20,-77 38,-134 54,-168 16,-34 40,-58 73,-71 33,-14 87,-20 160,-20l122 0c75,0 134,15 179,44 44,30 66,87 66,172l0 1537c0,74 -17,130 -50,167 -33,37 -77,55 -133,55 -52,0 -95,-18 -128,-55 -34,-37 -50,-93 -50,-167l0 -1341 -312 1238c-20,80 -36,139 -50,177 -12,37 -36,71 -70,102 -35,31 -82,46 -144,46 -46,0 -85,-10 -116,-30 -32,-19 -57,-45 -74,-76 -18,-31 -32,-65 -42,-102 -10,-38 -21,-77 -31,-117z"/>
  <path id="2" class="fil3" d="M5148 6976l0 1415 798 0c64,0 112,15 146,46 35,31 51,70 51,117 0,47 -16,86 -50,115 -33,30 -83,45 -147,45l-950 0c-86,0 -147,-19 -185,-57 -37,-38 -56,-100 -56,-184l0 -1497c0,-79 18,-138 54,-178 35,-40 82,-60 141,-60 59,0 107,20 143,59 37,39 55,99 55,179z"/>
  <path class="fil4" d="M6266 504c2450,2450 141,141 2450,2450l-1681 0c-423,0 -769,-346 -769,-769 0,-560 0,-1121 0,-1681z"/>
 </g>
</svg>
